<svg xmlns="http://www.w3.org/2000/svg" xmlns:xlink="http://www.w3.org/1999/xlink" width="500" zoomAndPan="magnify" viewBox="0 0 375 374.999991" height="500" preserveAspectRatio="xMidYMid meet" version="1.0"><defs><g/><clipPath id="7f9ba1e1e6"><path d="M 110.5 115.183594 L 258.25 115.183594 L 258.25 265.183594 L 110.5 265.183594 Z M 110.5 115.183594 " clip-rule="nonzero"/></clipPath></defs><g clip-path="url(#7f9ba1e1e6)"><path fill="#2478ff" d="M 173.429688 143.871094 C 175.164062 145.707031 176.898438 147.542969 178.632812 149.378906 C 178.855469 149.613281 179.085938 149.867188 179.148438 150.179688 C 179.207031 150.472656 179.113281 150.769531 179.117188 151.066406 C 179.128906 151.734375 179.625 152.285156 180.09375 152.765625 C 180.675781 153.363281 181.257812 153.964844 181.84375 154.5625 C 182.214844 154.945312 182.597656 155.347656 182.746094 155.859375 C 182.949219 156.546875 182.683594 157.289062 182.769531 158.003906 C 182.828125 158.5 183.054688 158.957031 183.265625 159.40625 C 184.503906 162.03125 185.4375 164.796875 186.039062 167.636719 C 186.179688 168.3125 186.292969 169.066406 185.929688 169.652344 C 185.605469 170.175781 184.984375 170.425781 184.492188 170.800781 C 184 171.171875 183.605469 171.875 183.953125 172.386719 C 184.109375 172.613281 184.371094 172.738281 184.625 172.84375 C 187.316406 173.976562 190.25 174.363281 193.144531 174.738281 C 193.65625 174.804688 194.175781 174.871094 194.6875 174.8125 C 195.589844 174.707031 196.441406 174.199219 196.953125 173.449219 C 199.074219 170.375 202.09375 168.015625 205.753906 167.265625 C 210.34375 166.328125 215.1875 168.015625 219.75 166.949219 C 221.675781 164.582031 224.3125 162.523438 227.179688 161.480469 C 229.1875 160.753906 231.433594 160.417969 233.445312 161.121094 C 233.9375 161.289062 234.417969 161.523438 234.9375 161.550781 C 235.554688 161.582031 236.140625 161.316406 236.699219 161.058594 C 237.335938 160.761719 237.972656 160.46875 238.609375 160.175781 C 237.789062 156.230469 236.929688 151.933594 237.066406 147.90625 C 237.101562 146.882812 237.195312 145.859375 237.152344 144.839844 C 237.125 144.273438 237.058594 143.714844 236.980469 143.15625 C 236.636719 140.78125 236.039062 138.445312 235.191406 136.199219 C 234.257812 133.722656 233.027344 131.363281 231.800781 129.015625 C 231.519531 128.472656 230.5625 128.375 229.949219 128.410156 C 229.335938 128.445312 228.738281 128.617188 228.128906 128.671875 C 225.726562 128.882812 223.535156 127.238281 221.136719 127.035156 C 220.0625 126.941406 218.992188 127.140625 217.933594 127.332031 C 217.703125 127.375 217.457031 127.414062 217.234375 127.328125 C 216.992188 127.230469 216.832031 126.996094 216.699219 126.769531 C 216.425781 126.3125 216.191406 125.835938 215.996094 125.339844 C 215.867188 125.023438 215.765625 124.632812 215.972656 124.359375 C 216.070312 124.226562 216.230469 124.144531 216.332031 124.011719 C 216.59375 123.664062 216.355469 123.160156 216.425781 122.726562 C 216.46875 122.464844 216.625 122.238281 216.769531 122.019531 C 217.617188 120.734375 218.292969 119.335938 218.773438 117.871094 C 218.976562 117.253906 219.15625 116.605469 219.578125 116.117188 C 220.238281 115.363281 221.335938 115.164062 222.339844 115.183594 C 224.414062 115.222656 226.464844 116.003906 228.042969 117.351562 C 228.46875 117.714844 228.855469 118.113281 229.277344 118.480469 C 229.640625 118.796875 230.023438 119.085938 230.40625 119.375 C 231.316406 120.0625 232.226562 120.75 233.136719 121.433594 C 233.828125 121.957031 234.519531 122.480469 235.210938 123 C 236.089844 123.664062 236.96875 124.328125 237.929688 124.863281 C 239.632812 125.816406 239.976562 127.890625 240.960938 129.574219 C 241.5625 130.601562 242.300781 131.308594 242.996094 132.273438 C 244.285156 134.066406 245.574219 135.859375 246.863281 137.652344 C 247.71875 138.84375 248.574219 140.03125 249.382812 141.253906 C 253.734375 147.824219 256.71875 155.296875 258.085938 163.058594 C 258.253906 164 257.78125 164.917969 257.25 165.710938 C 256.710938 166.507812 255.984375 167.15625 255.28125 167.808594 C 251.703125 171.140625 248.542969 174.902344 244.976562 178.253906 C 241.414062 181.601562 237.339844 184.585938 232.636719 185.929688 C 228.429688 187.128906 223.71875 187.035156 220.101562 189.496094 C 215.359375 192.722656 216.988281 200.449219 214.855469 205.773438 C 213.914062 208.125 212.601562 210.328125 211.855469 212.75 C 210.390625 217.488281 209.382812 222.40625 207.3125 226.910156 C 206.550781 228.570312 205.675781 230.191406 205.183594 231.949219 C 204.226562 235.402344 204.832031 239.085938 205.703125 242.5625 C 206.574219 246.039062 207.707031 249.496094 207.796875 253.078125 C 207.898438 257.246094 210.089844 261.15625 211.234375 265.160156 L 156.882812 265.160156 C 157.824219 262.269531 158.851562 259.664062 160.097656 256.890625 C 160.464844 256.074219 160.847656 255.253906 161.027344 254.378906 C 161.195312 253.554688 161.179688 252.707031 161.234375 251.867188 C 161.519531 247.464844 163.738281 243.242188 163.28125 238.855469 C 163.113281 237.238281 163.378906 235.636719 162.84375 234.101562 C 162.308594 232.566406 161.496094 231.148438 160.6875 229.738281 C 158.664062 226.214844 156.609375 222.683594 154.007812 219.566406 C 153.316406 220.484375 152.511719 221.410156 151.820312 222.328125 C 151.125 223.253906 150.429688 224.175781 149.691406 225.070312 C 146.71875 228.664062 143.054688 231.71875 138.855469 233.753906 C 136.441406 234.921875 133.851562 235.753906 131.558594 237.15625 C 130.46875 237.820312 129.449219 238.613281 128.273438 239.109375 C 126.941406 239.671875 125.476562 239.824219 124.035156 239.867188 C 121.769531 239.9375 119.382812 239.71875 117.496094 238.464844 C 116.75 237.972656 116.429688 237.078125 116.03125 236.28125 C 115.507812 235.238281 114.980469 234.195312 114.457031 233.15625 C 113.96875 232.183594 113.480469 231.207031 113.070312 230.199219 C 111.871094 227.214844 111.417969 223.984375 111.109375 220.78125 C 110.859375 218.183594 110.695312 215.578125 110.621094 212.972656 C 110.523438 209.664062 111.925781 206.316406 112.191406 203.019531 C 112.402344 200.363281 111.988281 197.621094 112.792969 195.082031 C 113.429688 193.066406 114.207031 190.917969 115.28125 189.09375 C 117.53125 185.273438 119.777344 181.449219 122.027344 177.628906 C 122.1875 177.355469 122.355469 177.078125 122.597656 176.871094 C 123.109375 176.445312 123.867188 176.441406 124.5 176.652344 C 125.132812 176.859375 125.6875 177.25 126.277344 177.5625 C 127.75 178.332031 129.453125 178.617188 130.871094 179.480469 C 131.097656 179.621094 131.324219 179.78125 131.449219 180.015625 C 131.585938 180.265625 131.59375 180.5625 131.667969 180.835938 C 131.828125 181.421875 132.289062 181.867188 132.644531 182.359375 C 133.003906 182.847656 133.265625 183.515625 132.980469 184.050781 C 132.863281 184.269531 132.671875 184.4375 132.476562 184.589844 C 131.589844 185.292969 130.589844 185.882812 129.914062 186.785156 C 129.554688 187.265625 129.296875 187.816406 128.953125 188.308594 C 127.160156 190.863281 123.265625 191.414062 121.785156 194.164062 C 121.226562 195.207031 121.105469 196.429688 121.085938 197.613281 C 121.042969 200.035156 121.382812 202.460938 122.085938 204.777344 C 122.613281 206.527344 123.761719 207.867188 124.714844 209.425781 C 125.171875 210.175781 125.640625 210.921875 126.183594 211.613281 C 126.601562 212.148438 127.0625 212.648438 127.429688 213.21875 C 127.890625 213.933594 128.199219 214.734375 128.496094 215.53125 C 129.058594 214.460938 129.355469 213.234375 129.730469 212.082031 C 130.285156 210.375 131.410156 208.894531 132.734375 207.675781 C 134.054688 206.457031 135.578125 205.480469 137.09375 204.515625 C 137.023438 202.136719 138.164062 199.90625 139.230469 197.777344 C 139.898438 196.445312 140.625 195.144531 141.507812 193.945312 C 145.347656 188.742188 152.203125 185.945312 158.585938 186.976562 C 159.109375 187.058594 159.726562 186.796875 160.101562 186.425781 C 161.539062 185.007812 162.972656 183.589844 164.410156 182.171875 C 164.878906 181.707031 165.355469 181.238281 165.691406 180.667969 C 166.40625 179.460938 166.414062 177.9375 166.015625 176.59375 C 165.617188 175.246094 164.859375 174.042969 164.09375 172.867188 C 163.589844 172.089844 163.066406 171.300781 162.328125 170.738281 C 161.847656 170.367188 161.289062 170.109375 160.765625 169.796875 C 158.734375 168.585938 157.179688 166.578125 154.953125 165.789062 C 151.929688 164.71875 149.601562 161.75 148.488281 158.738281 C 148.046875 157.539062 147.867188 156.242188 147.976562 154.96875 C 148.050781 154.082031 148.261719 153.214844 148.46875 152.347656 C 148.761719 151.132812 149.054688 149.917969 149.347656 148.703125 C 149.457031 148.238281 149.570312 147.769531 149.78125 147.339844 C 150.210938 146.457031 151 145.8125 151.773438 145.199219 C 153.464844 143.859375 155.179688 142.527344 157.070312 141.488281 C 158.960938 140.445312 161.050781 139.695312 163.207031 139.59375 C 164.261719 139.542969 165.320312 139.648438 166.367188 139.796875 C 167.703125 139.984375 169.046875 140.246094 170.269531 140.816406 C 171.488281 141.386719 172.503906 142.890625 173.429688 143.871094 Z M 173.429688 143.871094 " fill-opacity="1" fill-rule="nonzero"/></g><g fill="#fefefe" fill-opacity="1"><g transform="translate(160.770276, 207.638123)"><g><path d="M 5.582031 -3.324219 C 6.03125 -3.65625 6.472656 -4.074219 6.722656 -4.597656 L 6.765625 -4.714844 C 7.300781 -5.5 6.976562 -6.6875 6.621094 -7.589844 C 6.484375 -7.820312 6.359375 -8.035156 6.203125 -8.257812 L 5.667969 -9.050781 C 5.457031 -9.105469 4.496094 -9.449219 4.167969 -9.589844 C 3.230469 -9.035156 2.84375 -8.742188 1.859375 -8.113281 C 2.152344 -7.617188 2.992188 -6.421875 3.132812 -6.039062 C 3.429688 -6.214844 3.75 -6.382812 4.046875 -6.558594 C 4.144531 -6.394531 4.472656 -5.875 4.550781 -5.785156 L 4.320312 -5.605469 C 4.042969 -5.175781 3.054688 -4.546875 2.410156 -4.542969 C 1.820312 -4.527344 1.359375 -4.855469 0.929688 -5.203125 C -0.0898438 -5.648438 -0.308594 -7.03125 -0.234375 -7.921875 C -0.0234375 -9.9375 0.628906 -11.058594 1.632812 -12.296875 C 1.210938 -12.5625 0.183594 -13.203125 -0.257812 -13.652344 L -0.785156 -13.410156 L -1.035156 -13.191406 C -1.976562 -12.300781 -1.402344 -12.910156 -2.484375 -11.800781 C -2.878906 -11.078125 -3.125 -10.289062 -3.238281 -9.464844 C -3.414062 -7.84375 -2.988281 -6.179688 -2.160156 -4.78125 C -1.113281 -3.015625 0.414062 -1.78125 2.382812 -2.03125 C 3.414062 -2.175781 4.824219 -2.761719 5.582031 -3.324219 Z M 5.582031 -3.324219 "/></g></g></g><g fill="#fefefe" fill-opacity="1"><g transform="translate(168.845116, 203.080941)"><g><path d="M -2.675781 -10.167969 C -1.863281 -10.796875 -0.667969 -11.621094 0.046875 -12.132812 C -0.375 -13.105469 -0.929688 -14.007812 -1.175781 -14.46875 C -2.09375 -13.964844 -3.15625 -13.289062 -3.804688 -12.820312 C -3.824219 -12.8125 -3.84375 -12.808594 -3.855469 -12.78125 C -3.28125 -11.378906 -3.199219 -11.609375 -2.675781 -10.167969 Z M 0.867188 -0.304688 C 1.097656 -0.402344 2.199219 -0.789062 2.515625 -0.878906 C 3.367188 -1.460938 3.46875 -1.515625 3.566406 -1.589844 C 0.953125 -9.304688 1.898438 -6.652344 0.507812 -10.285156 C 0.472656 -10.273438 0.4375 -10.261719 0.394531 -10.265625 C -1.335938 -9.925781 -0.457031 -10.03125 -2.191406 -9.585938 C -2.296875 -9.550781 -2.394531 -9.535156 -2.511719 -9.515625 C -2.421875 -9.261719 -0.0585938 -2.964844 0.867188 -0.304688 Z M 0.867188 -0.304688 "/></g></g></g><g fill="#fefefe" fill-opacity="1"><g transform="translate(172.366675, 201.585173)"><g><path d="M 3.292969 -0.527344 C 3.417969 -0.585938 3.546875 -0.625 3.65625 -0.683594 C 4.429688 -0.941406 5.007812 -1.09375 5.625 -1.367188 C 5.566406 -2.09375 5.410156 -3.914062 5.417969 -4.34375 C 5.382812 -4.570312 5.328125 -4.792969 5.289062 -5.019531 C 4.519531 -8.972656 4.460938 -9.351562 4.378906 -9.746094 L 4.308594 -10.179688 C 5.011719 -10.273438 6.539062 -10.421875 6.511719 -10.59375 C 6.410156 -11.003906 6.285156 -11.410156 6.160156 -11.816406 C 6.082031 -12.078125 6.019531 -12.339844 5.9375 -12.617188 C 5.824219 -12.578125 5.695312 -12.558594 5.5625 -12.515625 C 4.773438 -12.351562 4.003906 -12.191406 3.210938 -12.0625 C 2.585938 -11.960938 0.835938 -11.855469 0.535156 -11.808594 C 0.421875 -11.789062 0.308594 -11.773438 0.191406 -11.773438 C -0.226562 -11.707031 -0.878906 -11.660156 -1.039062 -11.691406 C -0.984375 -10.867188 -0.949219 -10.039062 -0.894531 -9.210938 C -0.117188 -9.335938 0.652344 -9.5 1.441406 -9.664062 C 1.765625 -7.753906 2.1875 -5.863281 2.53125 -3.9375 C 2.832031 -3.035156 3.023438 -2.078125 3.195312 -1.132812 Z M 3.292969 -0.527344 "/></g></g></g><g fill="#fefefe" fill-opacity="1"><g transform="translate(180.109806, 200.405239)"><g/></g></g><g fill="#fefefe" fill-opacity="1"><g transform="translate(185.049685, 200.411786)"><g><path d="M 2.941406 0.640625 C 2.949219 0.605469 2.972656 0.589844 2.980469 0.550781 C 2.980469 0.550781 3.023438 0.441406 2.984375 0.53125 C 3.390625 -0.710938 3.933594 -2.574219 4.011719 -2.832031 L 4.066406 -2.820312 C 4.238281 -2.800781 5.855469 -2.46875 6.304688 -2.371094 L 6.3125 -2.410156 C 6.386719 -2.667969 7.019531 -4.667969 7.28125 -5.140625 C 6.671875 -5.3125 5.03125 -5.808594 4.847656 -5.867188 C 5.011719 -6.617188 5.105469 -7.046875 5.1875 -7.5 C 5.261719 -7.484375 6.164062 -7.402344 6.539062 -7.320312 C 7.25 -7.167969 7.953125 -6.875 8.65625 -6.683594 C 9.195312 -6.546875 9.289062 -6.527344 9.347656 -6.53125 L 9.421875 -6.773438 C 9.457031 -6.941406 9.921875 -9.074219 9.988281 -9.472656 C 8.808594 -9.808594 7.613281 -10.167969 6.445312 -10.578125 C 5.703125 -10.859375 3.902344 -11.605469 3.519531 -11.726562 C 3.484375 -11.753906 3.429688 -11.765625 3.394531 -11.792969 L 3.355469 -11.78125 C 3.007812 -10.738281 2.628906 -9 2.328125 -7.789062 L 1.433594 -3.6875 C 0.996094 -1.785156 1.007812 -1.917969 0.59375 -0.0273438 C 1.082031 -0.0195312 1.335938 0.0742188 2.265625 0.394531 C 2.21875 0.347656 2.28125 0.417969 2.667969 0.542969 Z M 2.941406 0.640625 "/></g></g></g><g fill="#fefefe" fill-opacity="1"><g transform="translate(191.826519, 201.953528)"><g><path d="M 4.636719 -9.4375 C 5.667969 -9.378906 7.109375 -9.21875 7.984375 -9.136719 C 8.300781 -10.144531 8.46875 -11.191406 8.589844 -11.703125 C 7.566406 -11.925781 6.320312 -12.109375 5.523438 -12.179688 C 5.503906 -12.1875 5.484375 -12.195312 5.460938 -12.183594 C 4.972656 -10.746094 5.1875 -10.871094 4.636719 -9.4375 Z M 0.855469 0.339844 C 1.09375 0.414062 2.179688 0.847656 2.476562 0.984375 C 3.5 1.101562 3.613281 1.128906 3.734375 1.132812 C 6.816406 -6.40625 5.792969 -3.78125 7.121094 -7.4375 C 7.085938 -7.453125 7.050781 -7.46875 7.023438 -7.5 C 5.496094 -8.375 6.226562 -7.878906 4.625 -8.679688 C 4.519531 -8.722656 4.4375 -8.773438 4.335938 -8.835938 C 4.238281 -8.585938 1.894531 -2.277344 0.855469 0.339844 Z M 0.855469 0.339844 "/></g></g></g><g fill="#fefefe" fill-opacity="1"><g transform="translate(195.467089, 203.130316)"><g><path d="M 2.832031 1.757812 C 2.96875 1.796875 3.09375 1.851562 3.210938 1.878906 C 3.964844 2.1875 4.5 2.453125 5.144531 2.652344 C 5.578125 2.0625 6.652344 0.585938 6.9375 0.269531 C 7.058594 0.0742188 7.164062 -0.132812 7.285156 -0.328125 C 9.292969 -3.820312 9.496094 -4.144531 9.691406 -4.496094 L 9.925781 -4.871094 C 10.515625 -4.480469 11.769531 -3.589844 11.859375 -3.738281 C 12.050781 -4.117188 12.222656 -4.503906 12.394531 -4.894531 C 12.503906 -5.140625 12.628906 -5.378906 12.75 -5.644531 C 12.640625 -5.6875 12.527344 -5.757812 12.402344 -5.8125 C 11.699219 -6.207031 11.011719 -6.585938 10.328125 -7.011719 C 9.789062 -7.34375 8.398438 -8.410156 8.136719 -8.574219 C 8.039062 -8.632812 7.941406 -8.695312 7.855469 -8.769531 C 7.496094 -8.992188 6.972656 -9.386719 6.875 -9.515625 C 6.375 -8.855469 5.859375 -8.207031 5.359375 -7.546875 C 6.027344 -7.132812 6.714844 -6.75 7.417969 -6.359375 C 6.414062 -4.703125 5.492188 -3 4.492188 -1.316406 C 4.128906 -0.4375 3.644531 0.414062 3.15625 1.238281 Z M 2.832031 1.757812 "/></g></g></g></svg>